<svg width="32" height="32" viewBox="0 0 32 32" fill="none" xmlns="http://www.w3.org/2000/svg">
<path d="M18.9467 28H9.05333C7.76467 28 6.72 26.9553 6.72 25.6667V22.5217V19.5769C6.72 19.1863 6.4033 18.8696 6.01263 18.8696C2.69195 18.8696 0 16.1776 0 12.8569V12.1439C0 9.28713 1.9134 6.7844 4.67015 6.03528L6.36719 5.57413C6.58761 5.51424 6.76353 5.34816 6.83599 5.13154C7.86143 2.06637 10.7317 0 13.9638 0H14.8049C17.8749 0 20.5335 2.13096 21.2017 5.12729C21.2499 5.34314 21.4136 5.51456 21.627 5.57256L23.3299 6.03529C26.0866 6.7844 28 9.28713 28 12.1438V12.8569C28 16.1776 25.3081 18.8696 21.9874 18.8696C21.5967 18.8696 21.28 19.1863 21.28 19.5769V22.5217V25.6667C21.28 26.9553 20.2353 28 18.9467 28Z" fill="#FFC532"/>
<circle cx="23" cy="23" r="9" fill="#212121"/>
<path d="M23 20V23M23 23V26M23 23H20M23 23L26 23" stroke="#F8F8F8" stroke-width="2" stroke-linecap="round"/>
</svg>
