<svg width="94" height="100" viewBox="0 0 94 100" fill="none" xmlns="http://www.w3.org/2000/svg">
<rect x="1.5" y="27.0806" width="90.0239" height="71.4191" rx="4.5" fill="#996E00" stroke="#FFC532" stroke-width="3"/>
<rect x="13.9521" width="65.1167" height="74.4191" rx="4" fill="#F8F8F8"/>
<path d="M46.393 68.7472L3.4873 34.5581V94.512C3.4873 95.6166 4.38274 96.512 5.4873 96.512H87.5344C88.639 96.512 89.5344 95.6166 89.5344 94.512V34.5581L48.9268 68.7136C48.1979 69.3267 47.1379 69.3407 46.393 68.7472Z" fill="#FFC532" stroke="#FFC532" stroke-width="5"/>
<path opacity="0.41" d="M21.9326 30.2334H37.9502H66.119M62.9628 34.8846H21.9326M48.4444 39.5358H21.9326" stroke="#7D7C7C" stroke-width="3" stroke-linecap="round"/>
<path opacity="0.41" d="M21.9326 10.3018C21.9326 9.74947 22.3803 9.30176 22.9326 9.30176H46.5142C47.0665 9.30176 47.5142 9.74947 47.5142 10.3018V22.2553C47.5142 22.8076 47.0665 23.2553 46.5142 23.2553H22.9326C22.3803 23.2553 21.9326 22.8076 21.9326 22.2553V10.3018Z" fill="#7D7C7C" stroke="#7D7C7C" stroke-width="4"/>
</svg>
