<svg width="26" height="26" viewBox="0 0 26 26" fill="none" xmlns="http://www.w3.org/2000/svg">
<path d="M11.4348 4.05577H3C1.89543 4.05577 1 4.9512 1 6.05577V22.9253C1 24.0299 1.89543 24.9253 3 24.9253H19.8696C20.9741 24.9253 21.8696 24.0299 21.8696 22.9253V14.4906M18.7391 3.01229L11.7686 9.98279C11.5491 10.2023 11.3837 10.47 11.2855 10.7645L9.98028 14.6801C9.7197 15.4619 10.4634 16.2056 11.2452 15.9451L15.1608 14.6399C15.4553 14.5417 15.723 14.3762 15.9425 14.1567L22.913 7.1862M18.7391 3.01229L20.5996 1.15178C20.7384 1.013 20.9437 0.964539 21.1299 1.02661C22.9093 1.61974 24.3056 3.01603 24.8987 4.79543C24.9608 4.98163 24.9123 5.18691 24.7735 5.3257L22.913 7.1862M18.7391 3.01229L22.913 7.1862" stroke="#7D7C7C" stroke-width="2" stroke-linecap="round"/>
</svg>
