<svg width="51" height="55" viewBox="0 0 51 55" fill="none" xmlns="http://www.w3.org/2000/svg">
<mask id="path-1-inside-1_606_2124" fill="white">
<path fill-rule="evenodd" clip-rule="evenodd" d="M18.3797 26.4219C18.3798 26.8139 18.8697 27.0148 19.1659 26.7579C21.1047 25.0759 23.6351 24.0579 26.4034 24.0579C29.2052 24.0579 31.7634 25.1007 33.7112 26.8194C33.9834 27.0597 34.4366 26.8745 34.4367 26.5114V26.5114C34.437 24.2137 34.4373 21.9159 34.4326 19.6174C34.4326 19.4256 34.4772 19.3408 34.6727 19.2824C37.4648 18.4565 39.1765 15.7091 38.7166 12.8078C38.2442 9.82559 35.4927 7.6927 32.5099 8.00046C32.2543 8.02676 31.9949 8.05597 31.748 8.12415C31.537 8.18258 31.4295 8.15142 31.3104 7.94884C30.4952 6.56295 29.3132 5.6348 27.7516 5.27639C25.4261 4.74366 23.4724 5.42346 21.9215 7.24567C21.741 7.45839 21.592 7.69957 21.4443 7.93875C21.4304 7.9613 21.4165 7.98382 21.4026 8.0063C21.328 8.12707 21.2612 8.16798 21.114 8.13389C18.1235 7.45214 15.2714 9.06496 14.2936 11.9848C13.2954 14.966 15.0584 18.3786 18.0606 19.2522C18.3171 19.3272 18.3878 19.4334 18.3868 19.6953C18.3784 21.9375 18.3791 24.1797 18.3797 26.4219V26.4219Z"/>
</mask>
<path fill-rule="evenodd" clip-rule="evenodd" d="M18.3797 26.4219C18.3798 26.8139 18.8697 27.0148 19.1659 26.7579C21.1047 25.0759 23.6351 24.0579 26.4034 24.0579C29.2052 24.0579 31.7634 25.1007 33.7112 26.8194C33.9834 27.0597 34.4366 26.8745 34.4367 26.5114V26.5114C34.437 24.2137 34.4373 21.9159 34.4326 19.6174C34.4326 19.4256 34.4772 19.3408 34.6727 19.2824C37.4648 18.4565 39.1765 15.7091 38.7166 12.8078C38.2442 9.82559 35.4927 7.6927 32.5099 8.00046C32.2543 8.02676 31.9949 8.05597 31.748 8.12415C31.537 8.18258 31.4295 8.15142 31.3104 7.94884C30.4952 6.56295 29.3132 5.6348 27.7516 5.27639C25.4261 4.74366 23.4724 5.42346 21.9215 7.24567C21.741 7.45839 21.592 7.69957 21.4443 7.93875C21.4304 7.9613 21.4165 7.98382 21.4026 8.0063C21.328 8.12707 21.2612 8.16798 21.114 8.13389C18.1235 7.45214 15.2714 9.06496 14.2936 11.9848C13.2954 14.966 15.0584 18.3786 18.0606 19.2522C18.3171 19.3272 18.3878 19.4334 18.3868 19.6953C18.3784 21.9375 18.3791 24.1797 18.3797 26.4219V26.4219Z" fill="#212121"/>
<path d="M34.4326 19.6174L32.4326 19.6215V19.6174H34.4326ZM34.6727 19.2824L34.1001 17.3661L34.1054 17.3645L34.6727 19.2824ZM38.7166 12.8078L36.7413 13.1208L36.7413 13.1207L38.7166 12.8078ZM32.5099 8.00046L32.7152 9.9899L32.7146 9.98996L32.5099 8.00046ZM31.748 8.12415L31.2143 6.19667L31.2156 6.19631L31.748 8.12415ZM31.3104 7.94884L33.0343 6.93486L33.0346 6.93532L31.3104 7.94884ZM27.7516 5.27639L28.1982 3.3269L28.199 3.32708L27.7516 5.27639ZM21.9215 7.24567L20.3965 5.95171L20.3984 5.94937L21.9215 7.24567ZM21.4443 7.93875L23.146 8.98967L23.1459 8.98971L21.4443 7.93875ZM21.4026 8.0063L19.7007 6.95577L19.7023 6.95317L21.4026 8.0063ZM21.114 8.13389L21.5586 6.1839L21.5654 6.18548L21.114 8.13389ZM14.2936 11.9848L12.397 11.3498L12.3971 11.3497L14.2936 11.9848ZM18.0606 19.2522L18.6194 17.3319L18.6217 17.3325L18.0606 19.2522ZM18.3868 19.6953L20.3868 19.7027L20.3868 19.7028L18.3868 19.6953ZM33.7112 26.8194L35.0345 25.3198L33.7112 26.8194ZM19.1659 26.7579L20.4765 28.2686L19.1659 26.7579ZM26.4034 26.0579C24.1347 26.0579 22.0655 26.8901 20.4765 28.2686L17.8553 25.2472C20.1439 23.2616 23.1356 22.0579 26.4034 22.0579V26.0579ZM32.3879 28.3191C30.7915 26.9104 28.6994 26.0579 26.4034 26.0579V22.0579C29.711 22.0579 32.7354 23.2911 35.0345 25.3198L32.3879 28.3191ZM32.4367 26.5111C32.437 24.2131 32.4373 21.9174 32.4326 19.6215L36.4326 19.6134C36.4373 21.9143 36.437 24.2143 36.4367 26.5116L32.4367 26.5111ZM32.4326 19.6174C32.4326 19.4409 32.4342 18.8523 32.824 18.2774C33.2414 17.6618 33.8309 17.4466 34.1001 17.3661L35.2453 21.1987C35.319 21.1767 35.7884 21.033 36.1347 20.5223C36.2982 20.2812 36.3706 20.0491 36.4032 19.8879C36.4329 19.7406 36.4326 19.6343 36.4326 19.6174H32.4326ZM34.1054 17.3645C35.9176 16.8285 37.0468 15.0482 36.7413 13.1208L40.692 12.4947C41.3062 16.3699 39.0121 20.0845 35.24 21.2003L34.1054 17.3645ZM36.7413 13.1207C36.4329 11.1743 34.6277 9.79257 32.7152 9.9899L32.3047 6.01102C36.3578 5.59283 40.0554 8.47684 40.692 12.4948L36.7413 13.1207ZM32.7146 9.98996C32.4481 10.0174 32.3451 10.0341 32.2804 10.052L31.2156 6.19631C31.6447 6.07782 32.0606 6.03613 32.3052 6.01096L32.7146 9.98996ZM32.2817 10.0516C32.0678 10.1109 31.4685 10.2631 30.7862 10.0047C30.0828 9.73821 29.73 9.20685 29.5862 8.96236L33.0346 6.93532C33.01 6.89341 32.7704 6.47892 32.2032 6.26407C31.6572 6.05724 31.2172 6.19588 31.2143 6.19667L32.2817 10.0516ZM29.5865 8.96282C29.0244 8.0071 28.2821 7.45016 27.3042 7.22571L28.199 3.32708C30.3442 3.81943 31.9661 5.11879 33.0343 6.93486L29.5865 8.96282ZM27.305 7.22589C26.4508 7.03021 25.7636 7.07621 25.1904 7.27128C24.6142 7.4674 24.0273 7.8572 23.4445 8.54197L20.3984 5.94937C21.3666 4.81193 22.532 3.95072 23.9017 3.48457C25.2745 3.01738 26.7269 2.98985 28.1982 3.3269L27.305 7.22589ZM23.4465 8.53963C23.38 8.61793 23.3079 8.72752 23.146 8.98967L19.7427 6.88783C19.8762 6.67163 20.1019 6.29884 20.3965 5.95171L23.4465 8.53963ZM23.1459 8.98971C23.1321 9.01205 23.1175 9.03568 23.1028 9.05944L19.7023 6.95317C19.7154 6.93197 19.7286 6.91054 19.7427 6.8878L23.1459 8.98971ZM23.1044 9.05684C23.0093 9.21092 22.7212 9.66086 22.1425 9.93528C21.5206 10.2302 20.9489 10.1486 20.6627 10.0823L21.5654 6.18548C21.4264 6.15328 20.9616 6.06829 20.4286 6.32105C19.9387 6.55335 19.7212 6.92246 19.7007 6.95577L23.1044 9.05684ZM20.6695 10.0839C18.6898 9.63254 16.8442 10.6666 16.19 12.6199L12.3971 11.3497C13.6986 7.46335 17.5572 5.27174 21.5586 6.18392L20.6695 10.0839ZM16.1901 12.6198C15.5471 14.5403 16.7244 16.7804 18.6194 17.3319L17.5018 21.1726C13.3924 19.9768 11.0438 15.3916 12.397 11.3498L16.1901 12.6198ZM18.6217 17.3325C18.8944 17.4122 19.4999 17.6214 19.9413 18.2322C20.3725 18.8289 20.3877 19.4555 20.3868 19.7027L16.3868 19.688C16.3868 19.7011 16.3861 19.8052 16.4186 19.9537C16.4544 20.1173 16.5325 20.3443 16.6992 20.5751C17.0414 21.0485 17.4833 21.1672 17.4994 21.1719L18.6217 17.3325ZM20.3868 19.7028C20.3784 21.9403 20.3791 24.1784 20.3797 26.4213L16.3797 26.4224C16.3791 24.1809 16.3784 21.9347 16.3868 19.6878L20.3868 19.7028ZM35.0345 25.3198C34.5245 24.8698 33.8712 24.8511 33.404 25.0467C32.925 25.2471 32.4368 25.7664 32.4367 26.5111L36.4367 26.5116C36.4364 28.7741 33.8169 29.58 32.3879 28.3191L35.0345 25.3198ZM20.4765 28.2686C19.6808 28.959 18.6548 29.0002 17.8861 28.6767C17.105 28.3481 16.38 27.5459 16.3797 26.4224L20.3797 26.4213C20.3795 25.6899 19.8995 25.1842 19.4375 24.9898C18.9877 24.8006 18.3549 24.8137 17.8553 25.2472L20.4765 28.2686Z" fill="#FFC532" mask="url(#path-1-inside-1_606_2124)"/>
<mask id="path-3-inside-2_606_2124" fill="white">
<path fill-rule="evenodd" clip-rule="evenodd" d="M19.3194 41.7651C19.6282 41.6059 19.7051 41.1899 19.4813 40.924C18.158 39.3517 17.3607 37.3219 17.3607 35.106C17.3607 30.113 21.4083 26.0654 26.4013 26.0654C31.3942 26.0654 35.4418 30.113 35.4418 35.106C35.4418 37.4318 34.5636 39.5525 33.1206 41.1545C32.888 41.4126 32.9508 41.8309 33.2541 42.0004C34.4283 42.6565 35.5172 43.4759 36.4852 44.4439C39.13 47.0887 40.6654 50.6356 40.7918 54.3615C40.8012 54.6375 40.5764 54.8615 40.3003 54.8615L26.0675 54.8615H11.8348C11.5586 54.8615 11.3339 54.6375 11.3433 54.3615C11.4697 50.6356 13.005 47.0887 15.6499 44.4439C16.7373 43.3565 17.9772 42.4566 19.3194 41.7651Z"/>
</mask>
<path fill-rule="evenodd" clip-rule="evenodd" d="M19.3194 41.7651C19.6282 41.6059 19.7051 41.1899 19.4813 40.924C18.158 39.3517 17.3607 37.3219 17.3607 35.106C17.3607 30.113 21.4083 26.0654 26.4013 26.0654C31.3942 26.0654 35.4418 30.113 35.4418 35.106C35.4418 37.4318 34.5636 39.5525 33.1206 41.1545C32.888 41.4126 32.9508 41.8309 33.2541 42.0004C34.4283 42.6565 35.5172 43.4759 36.4852 44.4439C39.13 47.0887 40.6654 50.6356 40.7918 54.3615C40.8012 54.6375 40.5764 54.8615 40.3003 54.8615L26.0675 54.8615H11.8348C11.5586 54.8615 11.3339 54.6375 11.3433 54.3615C11.4697 50.6356 13.005 47.0887 15.6499 44.4439C16.7373 43.3565 17.9772 42.4566 19.3194 41.7651Z" fill="#212121"/>
<path d="M36.4852 44.4439L35.0709 45.8581L35.0709 45.8581L36.4852 44.4439ZM26.0675 54.8615L26.0675 56.8615H26.0675V54.8615ZM11.3433 54.3615L13.3421 54.4293L11.3433 54.3615ZM33.1206 41.1545L31.6345 39.8159L33.1206 41.1545ZM33.2541 42.0004L34.2297 40.2545L33.2541 42.0004ZM40.3003 54.8615L40.3003 56.8615L40.3003 54.8615ZM19.4813 40.924L17.9512 42.2119L17.9512 42.2119L19.4813 40.924ZM19.3194 41.7651L20.2354 43.543L19.3194 41.7651ZM19.3607 35.106C19.3607 36.8334 19.9802 38.4109 21.0115 39.6362L17.9512 42.2119C16.3357 40.2925 15.3607 37.8105 15.3607 35.106H19.3607ZM26.4013 28.0654C22.5129 28.0654 19.3607 31.2176 19.3607 35.106H15.3607C15.3607 29.0085 20.3037 24.0654 26.4013 24.0654V28.0654ZM33.4418 35.106C33.4418 31.2176 30.2897 28.0654 26.4013 28.0654V24.0654C32.4988 24.0654 37.4418 29.0085 37.4418 35.106H33.4418ZM31.6345 39.8159C32.7595 38.567 33.4418 36.9185 33.4418 35.106H37.4418C37.4418 37.9451 36.3676 40.538 34.6066 42.493L31.6345 39.8159ZM34.2297 40.2545C35.5633 40.9996 36.8 41.9303 37.8994 43.0297L35.0709 45.8581C34.2343 45.0214 33.2933 44.3133 32.2786 43.7464L34.2297 40.2545ZM37.8994 43.0297C40.9033 46.0336 42.6471 50.062 42.7907 54.2937L38.793 54.4293C38.6837 51.2093 37.3567 48.1439 35.0709 45.8581L37.8994 43.0297ZM40.3003 56.8615L26.0675 56.8615L26.0675 52.8615L40.3003 52.8615L40.3003 56.8615ZM26.0675 56.8615H11.8348V52.8615H26.0675V56.8615ZM9.3444 54.2937C9.48797 50.062 11.2318 46.0336 14.2357 43.0297L17.0641 45.8581C14.7783 48.1439 13.4513 51.2093 13.3421 54.4293L9.3444 54.2937ZM14.2357 43.0297C15.4707 41.7947 16.879 40.7726 18.4033 39.9872L20.2354 43.543C19.0755 44.1406 18.004 44.9182 17.0641 45.8581L14.2357 43.0297ZM11.8348 56.8615C10.4721 56.8615 9.29519 55.7442 9.3444 54.2937L13.3421 54.4293C13.3726 53.5307 12.6452 52.8615 11.8348 52.8615V56.8615ZM34.6066 42.493C35.2046 41.8291 35.0839 40.7318 34.2297 40.2545L32.2786 43.7464C30.8177 42.9301 30.5715 40.9961 31.6345 39.8159L34.6066 42.493ZM42.7907 54.2937C42.8399 55.7442 41.663 56.8615 40.3003 56.8615L40.3003 52.8615C39.4899 52.8615 38.7625 53.5307 38.793 54.4293L42.7907 54.2937ZM21.0115 39.6362C22.0344 40.8515 21.7231 42.7764 20.2354 43.543L18.4033 39.9872C17.5333 40.4354 17.3758 41.5283 17.9512 42.2119L21.0115 39.6362Z" fill="#FFC532" mask="url(#path-3-inside-2_606_2124)"/>
</svg>
