<svg width="24" height="24" viewBox="0 0 24 24" fill="none" xmlns="http://www.w3.org/2000/svg">
<path d="M11.9998 14C12.2825 14 12.5625 13.9483 12.8237 13.8478C13.0849 13.7473 13.3222 13.5999 13.5221 13.4142C13.7221 13.2285 13.8806 13.008 13.9888 12.7654C14.097 12.5227 14.1527 12.2626 14.1527 12C14.1527 11.7374 14.097 11.4773 13.9888 11.2346C13.8806 10.992 13.7221 10.7715 13.5221 10.5858C13.3222 10.4001 13.0849 10.2527 12.8237 10.1522C12.5625 10.0517 12.2825 10 11.9998 10C11.4288 10.0001 10.8812 10.2109 10.4775 10.5861C10.0738 10.9613 9.84714 11.47 9.84727 12.0005C9.8474 12.5309 10.0744 13.0395 10.4782 13.4145C10.8821 13.7895 11.4297 14.0001 12.0007 14L11.9998 14ZM18.847 14C19.1298 14 19.4097 13.9483 19.6709 13.8478C19.9321 13.7472 20.1695 13.5999 20.3694 13.4142C20.5693 13.2285 20.7279 13.008 20.8361 12.7654C20.9443 12.5227 21 12.2626 21 12C21 11.7374 20.9443 11.4773 20.8361 11.2346C20.7279 10.992 20.5693 10.7715 20.3694 10.5858C20.1695 10.4001 19.9321 10.2527 19.6709 10.1522C19.4097 10.0517 19.1298 10 18.847 10C18.276 10.0001 17.7285 10.2109 17.3248 10.5861C16.9211 10.9613 16.6944 11.47 16.6945 12.0005C16.6947 12.5309 16.9216 13.0395 17.3255 13.4145C17.7293 13.7895 18.276 14.0001 18.847 14ZM5.15249 14C5.43522 14 5.71519 13.9483 5.9764 13.8478C6.23761 13.7473 6.47495 13.5999 6.67487 13.4142C6.87479 13.2285 7.03338 13.008 7.14158 12.7654C7.24978 12.5227 7.30546 12.2626 7.30546 12C7.30546 11.7374 7.24978 11.4773 7.14158 11.2346C7.03338 10.992 6.87479 10.7715 6.67487 10.5858C6.47495 10.4001 6.23761 10.2527 5.9764 10.1522C5.71518 10.0517 5.43522 10 5.15249 10C4.58148 10.0001 4.03392 10.2109 3.63025 10.5861C3.22658 10.9613 2.99987 11.47 3 12.0005C3.00013 12.5309 3.22709 13.0395 3.63094 13.4145C4.03479 13.7895 4.58148 14.0001 5.15249 14Z" fill="#7D7C7C"/>
</svg>
