<svg width="22" height="22" viewBox="0 0 22 22" fill="none" xmlns="http://www.w3.org/2000/svg">
<path d="M9.8125 14.0059L14.0059 9.8125M11.9092 16.1026L16.1026 11.9092M10.3367 7.19163C10.3367 8.92859 8.92859 10.3367 7.19163 10.3367C5.45467 10.3367 4.04659 8.92859 4.04659 7.19163C4.04659 5.45467 5.45467 4.04659 7.19163 4.04659C8.92859 4.04659 10.3367 5.45467 10.3367 7.19163ZM12.8676 20.3859L20.3859 12.8676C21.2047 12.0488 21.2047 10.7212 20.3859 9.90243L12.0976 1.61412C11.6472 1.16373 11.0165 0.9425 10.3835 1.01284L3.61699 1.76467C2.64235 1.87296 1.87296 2.64235 1.76467 3.61699L1.01284 10.3835C0.942499 11.0165 1.16374 11.6472 1.61412 12.0976L9.90243 20.3859C10.7212 21.2047 12.0488 21.2047 12.8676 20.3859Z" stroke="#f8f8f8" stroke-width="2" stroke-linecap="round"/>
</svg>
