<svg width="20" height="20" viewBox="0 0 21 16" fill="none" xmlns="http://www.w3.org/2000/svg">
	<path fill-rule="evenodd" clip-rule="evenodd" d="M20.2306 7.04981L17.1668 2.14784C16.7195 1.43154 15.934 0.995883 15.089 0.995883H3.44686C2.09331 0.995883 0.995883 2.09331 0.995883 3.44686V13.2508C0.995883 14.6043 2.09331 15.7018 3.44686 15.7018H15.089C15.934 15.7018 16.7189 15.2661 17.1668 14.5492L20.2306 9.64723C20.7281 8.85373 20.7281 7.84454 20.2306 7.04981ZM19.1913 8.99772L16.1276 13.9009C15.9027 14.2612 15.5137 14.4763 15.089 14.4763H3.44686C2.77101 14.4763 2.22137 13.926 2.22137 13.2508V3.44686C2.22137 2.77101 2.77101 2.22137 3.44686 2.22137H15.089C15.5137 2.22137 15.9027 2.43706 16.1276 2.79674L19.1913 7.6987C19.4383 8.09392 19.4383 8.60373 19.1913 8.99772Z" fill="white" />
	<path fill-rule="evenodd" clip-rule="evenodd" d="M12.4363 4.91822C10.5396 4.91822 9.0043 6.45463 9.0043 8.35026C9.0043 10.2459 10.5396 11.7823 12.4363 11.7823C14.3308 11.7823 15.8684 10.2447 15.8684 8.35026C15.8684 6.45463 14.3308 4.91822 12.4363 4.91822ZM12.4363 10.6394C11.1722 10.6394 10.1483 9.61439 10.1483 8.3514C10.1483 7.08841 11.1722 6.06338 12.4363 6.06338C13.6993 6.06338 14.7244 7.08841 14.7244 8.3514C14.7244 9.61325 13.6993 10.6394 12.4363 10.6394Z" fill="white" />
	<path fill-rule="evenodd" clip-rule="evenodd" d="M19.0252 8.89359C19.2322 8.56338 19.2323 8.13435 19.0251 7.8026L15.9614 2.90069C15.9614 2.90068 15.9614 2.9007 15.9614 2.90069C15.7723 2.59835 15.4461 2.41745 15.089 2.41745H3.44686C2.8793 2.41745 2.41745 2.8793 2.41745 3.44686V13.2508C2.41745 13.8178 2.87936 14.2802 3.44686 14.2802H15.089C15.4462 14.2802 15.7723 14.0998 15.9613 13.7971L19.0252 8.89359ZM16.1276 2.79674C15.9027 2.43706 15.5137 2.22137 15.089 2.22137H3.44686C2.77101 2.22137 2.22137 2.77101 2.22137 3.44686V13.2508C2.22137 13.926 2.77101 14.4763 3.44686 14.4763H15.089C15.5137 14.4763 15.9027 14.2612 16.1276 13.9009L19.1913 8.99772C19.4383 8.60373 19.4383 8.09392 19.1913 7.6987L16.1276 2.79674ZM17.3332 2.04399L20.3968 6.94576C20.9341 7.80408 20.9342 8.89414 20.3967 9.75139L17.3331 14.6531C16.8494 15.4273 16.0017 15.8978 15.089 15.8978H3.44686C1.98502 15.8978 0.799805 14.7126 0.799805 13.2508V3.44686C0.799805 1.98502 1.98502 0.799805 3.44686 0.799805H15.089C16.0016 0.799805 16.85 1.27031 17.3332 2.04399ZM17.1668 2.14784L20.2306 7.04981C20.7281 7.84454 20.7281 8.85373 20.2306 9.64723L17.1668 14.5492C16.7189 15.2661 15.934 15.7018 15.089 15.7018H3.44686C2.09331 15.7018 0.995883 14.6043 0.995883 13.2508V3.44686C0.995883 2.09331 2.09331 0.995883 3.44686 0.995883H15.089C15.934 0.995883 16.7195 1.43154 17.1668 2.14784ZM8.80822 8.35026C8.80822 6.34638 10.4312 4.72214 12.4363 4.72214C14.4391 4.72214 16.0645 6.3463 16.0645 8.35026C16.0645 10.353 14.4391 11.9784 12.4363 11.9784C10.4312 11.9784 8.80822 10.3541 8.80822 8.35026ZM10.3444 8.3514C10.3444 9.50617 11.2806 10.4434 12.4363 10.4434C13.591 10.4434 14.5283 9.50502 14.5283 8.3514C14.5283 7.1967 13.591 6.25945 12.4363 6.25945C11.2806 6.25945 10.3444 7.19664 10.3444 8.3514ZM9.0043 8.35026C9.0043 6.45463 10.5396 4.91822 12.4363 4.91822C14.3308 4.91822 15.8684 6.45463 15.8684 8.35026C15.8684 10.2447 14.3308 11.7823 12.4363 11.7823C10.5396 11.7823 9.0043 10.2459 9.0043 8.35026ZM10.1483 8.3514C10.1483 9.61439 11.1722 10.6394 12.4363 10.6394C13.6993 10.6394 14.7244 9.61325 14.7244 8.3514C14.7244 7.08841 13.6993 6.06338 12.4363 6.06338C11.1722 6.06338 10.1483 7.08841 10.1483 8.3514Z" fill="white" />
</svg>
