<svg width="20" height="20" viewBox="0 0 20 20" fill="none" xmlns="http://www.w3.org/2000/svg">
<circle cx="10" cy="10" r="9" stroke="#F8F8F8" stroke-width="2"/>
<path d="M6.24897 9.704V8.924H11.685L11.421 9.704H6.24897ZM6.24897 11.336V10.544H11.193L10.953 11.336H6.24897ZM10.737 5.96C11.249 5.96 11.705 6.032 12.105 6.176C12.513 6.32 12.857 6.532 13.137 6.812C13.425 7.092 13.633 7.432 13.761 7.832L12.489 8.408C12.393 8 12.193 7.696 11.889 7.496C11.593 7.288 11.237 7.184 10.821 7.184C10.365 7.184 9.98097 7.296 9.66897 7.52C9.35697 7.736 9.11697 8.06 8.94897 8.492C8.78897 8.916 8.70897 9.432 8.70897 10.04C8.70897 10.944 8.87697 11.648 9.21297 12.152C9.55697 12.648 10.093 12.896 10.821 12.896C11.261 12.896 11.625 12.784 11.913 12.56C12.209 12.328 12.413 11.98 12.525 11.516L13.845 11.936C13.717 12.408 13.509 12.808 13.221 13.136C12.933 13.464 12.581 13.712 12.165 13.88C11.749 14.04 11.281 14.12 10.761 14.12C10.009 14.12 9.36497 13.956 8.82897 13.628C8.29297 13.3 7.88097 12.832 7.59297 12.224C7.31297 11.616 7.17297 10.888 7.17297 10.04C7.17297 9.192 7.32097 8.464 7.61697 7.856C7.91297 7.248 8.32897 6.78 8.86497 6.452C9.40097 6.124 10.025 5.96 10.737 5.96Z" fill="#F8F8F8"/>
</svg>
